<svg width="36" height="37" viewBox="0 0 36 37" fill="none" xmlns="http://www.w3.org/2000/svg">
<circle cx="18" cy="18.2101" r="18" fill="#BE123C"/>
<path fill-rule="evenodd" clip-rule="evenodd" d="M9.59998 14.61C9.59998 13.9473 10.1372 13.41 10.8 13.41H25.2C25.8627 13.41 26.4 13.9473 26.4 14.61C26.4 15.2728 25.8627 15.81 25.2 15.81H10.8C10.1372 15.81 9.59998 15.2728 9.59998 14.61Z" fill="white"/>
<path fill-rule="evenodd" clip-rule="evenodd" d="M9.59998 21.81C9.59998 21.1473 10.1372 20.61 10.8 20.61H25.2C25.8627 20.61 26.4 21.1473 26.4 21.81C26.4 22.4728 25.8627 23.01 25.2 23.01H10.8C10.1372 23.01 9.59998 22.4728 9.59998 21.81Z" fill="white"/>
</svg>
